<?xml version="1.0" encoding="UTF-8" standalone="no"?>
<!DOCTYPE svg PUBLIC "-//W3C//DTD SVG 1.1//EN" "http://www.w3.org/Graphics/SVG/1.1/DTD/svg11.dtd">
<svg xmlns="http://www.w3.org/2000/svg" xmlns:dc="http://purl.org/dc/elements/1.1/" version="1.1" xmlns:xl="http://www.w3.org/1999/xlink" viewBox="-11.781683 -859.7565 762.7731 633.9111" width="762.7731" height="633.9111">
  <defs>
    <clipPath id="artboard_clip_path">
      <path d="M -11.781683 -859.7565 L 750.9914 -859.7565 L 750.9914 -225.84537 L -11.781683 -225.84537 Z"/>
    </clipPath>
  </defs>
  <metadata> Produced by OmniGraffle 7.11.3 
    <dc:date>2019-10-01 13:19:14 +0000</dc:date>
  </metadata>
  <g id="Canvas_1" fill-opacity="1" stroke-opacity="1" stroke="none" stroke-dasharray="none" fill="none">
    <title>Canvas 1</title>
    <rect fill="white" x="-11.781683" y="-859.7565" width="762.7731" height="633.9111"/>
    <g id="Canvas_1: Layer 1" clip-path="url(#artboard_clip_path)">
      <title>Layer 1</title>
      <g id="Graphic_290">
        <circle cx="622.8412" cy="-630.4176" r="10.550151919874" fill="#a16a4a"/>
      </g>
      <g id="Graphic_289"/>
      <g id="Graphic_288">
        <path d="M -12.819255 -392.5694 L -12.819255 -589.6568 L 369.22867 -867.8854 L 750.9914 -615.2726 L 750.9914 -392.5694 L 369.0861 -225.84537 Z" fill="#999"/>
      </g>
      <g id="Graphic_287">
        <path d="M 369.0861 -560.3413 L -12.819255 -397.87183 L -12.819255 -844.4193 L 369.0861 -1009.99 L 750.9914 -844.4193 L 750.9914 -397.87183 Z" fill="#80ffff"/>
      </g>
      <g id="Graphic_286">
        <path d="M 482.8253 -513.3043 L 482.8253 -703.8252 L 591.2737 -656.56305 L 591.2737 -466.8463 Z" fill="#ab7942"/>
        <path d="M 482.8253 -513.3043 L 482.8253 -703.8252 L 591.2737 -656.56305 L 591.2737 -466.8463 Z" stroke="black" stroke-linecap="round" stroke-linejoin="round" stroke-width="4"/>
      </g>
      <g id="Group_283">
        <g id="Graphic_285">
          <path d="M 126.48415 -654.9372 L 207.73444 -692.3732 L 207.73444 -603.1526 L 126.48415 -566.49396 Z" fill="#00fa00"/>
          <path d="M 126.48415 -654.9372 L 207.73444 -692.3732 L 207.73444 -603.1526 L 126.48415 -566.49396 Z" stroke="black" stroke-linecap="round" stroke-linejoin="round" stroke-width="5"/>
        </g>
        <g id="Graphic_284">
          <path d="M 205.34473 -688.5608 L 205.34473 -604.7766 L 128.87387 -570.2717 L 128.87387 -653.32806 Z M 210.12416 -696.1807 L 124.09444 -656.5414 L 124.09444 -562.71124 L 210.12416 -601.5286 L 210.12416 -696.1807 Z" fill="#00fa00"/>
          <path d="M 205.34473 -688.5608 L 205.34473 -604.7766 L 128.87387 -570.2717 L 128.87387 -653.32806 Z M 210.12416 -696.1807 L 124.09444 -656.5414 L 124.09444 -562.71124 L 210.12416 -601.5286 L 210.12416 -696.1807 Z" stroke="black" stroke-linecap="round" stroke-linejoin="round" stroke-width="5"/>
        </g>
      </g>
      <g id="Group_239">
        <title>Icons</title>
        <g id="Group_240">
          <g id="Line_282">
            <path d="M 329.5815 -284.48266 L 322.6254 -268.97266 L 345.49726 -268.97266 L 338.93237 -284.48266" stroke="black" stroke-linecap="round" stroke-linejoin="round" stroke-width="2"/>
          </g>
          <g id="Line_281">
            <path d="M 415.10726 -284.48266 L 422.06335 -268.97266 L 399.1912 -268.97266 L 405.75643 -284.48266" stroke="black" stroke-linecap="round" stroke-linejoin="round" stroke-width="2"/>
          </g>
          <g id="Line_280">
            <path d="M 347.2391 -291.50353 L 351.53716 -283.34958 L 394.4958 -283.34958 L 398.4068 -292.42006" stroke="black" stroke-linecap="round" stroke-linejoin="round" stroke-width="2"/>
          </g>
          <g id="Graphic_279">
            <path d="M 343.96203 -366.04935 C 343.96203 -381.6892 356.62767 -394.3897 372.30235 -394.3897 C 387.9422 -394.3897 400.643 -381.6892 400.643 -366.04935" fill="#f4f4f4"/>
            <path d="M 343.96203 -366.04935 C 343.96203 -381.6892 356.62767 -394.3897 372.30235 -394.3897 C 387.9422 -394.3897 400.643 -381.6892 400.643 -366.04935" stroke="black" stroke-linecap="round" stroke-linejoin="round" stroke-width="2"/>
          </g>
          <g id="Graphic_278">
            <circle cx="370.9154" cy="-380.2197" r="5.24881440235362" fill="#f43735"/>
            <circle cx="370.9154" cy="-380.2197" r="5.24881440235362" stroke="black" stroke-linecap="round" stroke-linejoin="round" stroke-width="2"/>
          </g>
          <g id="Graphic_277">
            <path d="M 392.558 -289.91702 L 352.04666 -289.91702 C 347.58167 -289.91702 343.96203 -293.5367 343.96203 -298.002 L 343.96203 -359.2576 L 400.643 -359.2576 L 400.643 -298.00203 C 400.643 -293.5367 397.0233 -289.91702 392.558 -289.91702 Z" fill="#f4f4f4"/>
            <path d="M 392.558 -289.91702 L 352.04666 -289.91702 C 347.58167 -289.91702 343.96203 -293.5367 343.96203 -298.002 L 343.96203 -359.2576 L 400.643 -359.2576 L 400.643 -298.00203 C 400.643 -293.5367 397.0233 -289.91702 392.558 -289.91702 Z" stroke="black" stroke-linecap="round" stroke-linejoin="round" stroke-width="2"/>
          </g>
          <g id="Graphic_276">
            <rect x="328.674" y="-324.5583" width="10.774623" height="40.07565" fill="#dbdbdb"/>
            <rect x="328.674" y="-324.5583" width="10.774623" height="40.07565" stroke="black" stroke-linecap="round" stroke-linejoin="round" stroke-width="2"/>
          </g>
          <g id="Graphic_275">
            <rect x="366.7877" y="-324.5873" width="9.376644" height="18.068152" fill="#50abfe"/>
            <rect x="366.7877" y="-324.5873" width="9.376644" height="18.068152" stroke="black" stroke-linecap="round" stroke-linejoin="round" stroke-width="2"/>
          </g>
          <g id="Graphic_274">
            <rect x="343.96203" y="-366.04935" width="55.96537" height="6.791736" fill="#50abfe"/>
            <rect x="343.96203" y="-366.04935" width="55.96537" height="6.791736" stroke="black" stroke-linecap="round" stroke-linejoin="round" stroke-width="2"/>
          </g>
          <g id="Graphic_273">
            <rect x="405.24014" y="-324.5583" width="10.774623" height="40.07565" fill="#dbdbdb"/>
            <rect x="405.24014" y="-324.5583" width="10.774623" height="40.07565" stroke="black" stroke-linecap="round" stroke-linejoin="round" stroke-width="2"/>
          </g>
          <g id="Graphic_272">
            <rect x="352.60257" y="-352.34373" width="37.746944" height="7.848461" fill="#50abfe"/>
            <rect x="352.60257" y="-352.34373" width="37.746944" height="7.848461" stroke="black" stroke-linecap="round" stroke-linejoin="round" stroke-width="2"/>
          </g>
          <g id="Graphic_271">
            <rect x="352.60257" y="-339.5791" width="37.746944" height="7.848146" fill="#50abfe"/>
            <rect x="352.60257" y="-339.5791" width="37.746944" height="7.848146" stroke="black" stroke-linecap="round" stroke-linejoin="round" stroke-width="2"/>
          </g>
          <g id="Graphic_270">
            <path d="M 341.1821 -324.5583 L 329.063 -324.5583 C 327.52775 -324.5583 326.28313 -325.8029 326.28313 -327.3382 L 326.28313 -351.76204 C 326.28313 -353.2973 327.5277 -354.5419 329.063 -354.5419 L 341.1821 -354.5419 C 342.71738 -354.5419 343.96203 -353.2973 343.96203 -351.76204 L 343.96203 -327.3382 C 343.96203 -325.8029 342.71738 -324.5583 341.1821 -324.5583 Z" fill="#f4f4f4"/>
            <path d="M 341.1821 -324.5583 L 329.063 -324.5583 C 327.52775 -324.5583 326.28313 -325.8029 326.28313 -327.3382 L 326.28313 -351.76204 C 326.28313 -353.2973 327.5277 -354.5419 329.063 -354.5419 L 341.1821 -354.5419 C 342.71738 -354.5419 343.96203 -353.2973 343.96203 -351.76204 L 343.96203 -327.3382 C 343.96203 -325.8029 342.71738 -324.5583 341.1821 -324.5583 Z" stroke="black" stroke-linecap="round" stroke-linejoin="round" stroke-width="2"/>
          </g>
          <g id="Graphic_269">
            <path d="M 403.50665 -324.5583 L 415.62576 -324.5583 C 417.16106 -324.5583 418.40564 -325.8029 418.40564 -327.3382 L 418.40564 -351.76204 C 418.40564 -353.2973 417.16106 -354.5419 415.62576 -354.5419 L 403.50665 -354.5419 C 401.97136 -354.5419 400.72677 -353.2973 400.72677 -351.76204 L 400.72677 -327.3382 C 400.72677 -325.8029 401.9714 -324.5583 403.50665 -324.5583 Z" fill="#f4f4f4"/>
            <path d="M 403.50665 -324.5583 L 415.62576 -324.5583 C 417.16106 -324.5583 418.40564 -325.8029 418.40564 -327.3382 L 418.40564 -351.76204 C 418.40564 -353.2973 417.16106 -354.5419 415.62576 -354.5419 L 403.50665 -354.5419 C 401.97136 -354.5419 400.72677 -353.2973 400.72677 -351.76204 L 400.72677 -327.3382 C 400.72677 -325.8029 401.9714 -324.5583 403.50665 -324.5583 Z" stroke="black" stroke-linecap="round" stroke-linejoin="round" stroke-width="2"/>
          </g>
          <g id="Graphic_268">
            <path d="M 343.96203 -366.04935 C 343.96203 -381.6892 356.62767 -394.3897 372.30235 -394.3897 C 387.9422 -394.3897 400.643 -381.6892 400.643 -366.04935" stroke="#303030" stroke-linecap="round" stroke-linejoin="round" stroke-width="2"/>
          </g>
          <g id="Line_267">
            <line x1="400.643" y1="-366.04935" x2="343.96203" y2="-366.04935" stroke="#303030" stroke-linecap="round" stroke-linejoin="round" stroke-width="2"/>
          </g>
          <g id="Graphic_266">
            <path d="M 392.558 -289.91702 L 352.04666 -289.91702 C 347.58167 -289.91702 343.96203 -293.5367 343.96203 -298.002 L 343.96203 -359.2576 L 400.643 -359.2576 L 400.643 -298.00203 C 400.643 -293.5367 397.0233 -289.91702 392.558 -289.91702 Z" stroke="#303030" stroke-linecap="round" stroke-linejoin="round" stroke-width="2"/>
          </g>
          <g id="Graphic_265">
            <circle cx="370.9154" cy="-380.2197" r="5.24881440235362" stroke="#303030" stroke-linecap="round" stroke-linejoin="round" stroke-width="2"/>
          </g>
          <g id="Graphic_264">
            <circle cx="383.4353" cy="-373.10212" r="2.81950248093274" fill="#303030"/>
            <circle cx="383.4353" cy="-373.10212" r="2.81950248093274" stroke="black" stroke-linecap="round" stroke-linejoin="round" stroke-width="2"/>
          </g>
          <g id="Line_263">
            <line x1="343.96203" y1="-366.04935" x2="343.96203" y2="-359.2576" stroke="#303030" stroke-linecap="round" stroke-linejoin="round" stroke-width="2"/>
          </g>
          <g id="Line_262">
            <line x1="400.643" y1="-366.04935" x2="400.643" y2="-359.2576" stroke="#303030" stroke-linecap="round" stroke-linejoin="round" stroke-width="2"/>
          </g>
          <g id="Graphic_261">
            <rect x="352.60257" y="-352.34373" width="37.746944" height="7.848461" stroke="#303030" stroke-linecap="round" stroke-linejoin="round" stroke-width="2"/>
          </g>
          <g id="Graphic_260">
            <rect x="352.60257" y="-339.5791" width="37.746944" height="7.848146" stroke="#303030" stroke-linecap="round" stroke-linejoin="round" stroke-width="2"/>
          </g>
          <g id="Graphic_259">
            <rect x="366.7877" y="-324.5873" width="9.376644" height="18.068152" stroke="#303030" stroke-linecap="round" stroke-linejoin="round" stroke-width="2"/>
          </g>
          <g id="Graphic_258">
            <circle cx="371.47605" cy="-297.7194" r="3.2403786432934" fill="#303030"/>
            <circle cx="371.47605" cy="-297.7194" r="3.2403786432934" stroke="black" stroke-linecap="round" stroke-linejoin="round" stroke-width="2"/>
          </g>
          <g id="Line_257">
            <path d="M 347.2391 -291.50353 L 351.53716 -283.34958 L 394.4958 -283.34958 L 398.4068 -292.42006" stroke="#303030" stroke-linecap="round" stroke-linejoin="round" stroke-width="2"/>
          </g>
          <g id="Line_256">
            <line x1="359.65114" y1="-289.91702" x2="362.85834" y2="-283.34958" stroke="#303030" stroke-linecap="butt" stroke-linejoin="round" stroke-width="2"/>
          </g>
          <g id="Line_255">
            <line x1="385.9464" y1="-289.91702" x2="382.7392" y2="-283.34958" stroke="#303030" stroke-linecap="butt" stroke-linejoin="round" stroke-width="2"/>
          </g>
          <g id="Graphic_254">
            <path d="M 350.29965 -366.04935 C 350.29965 -366.04935 350.58136 -375.72633 356.77718 -380.9367" stroke="#303030" stroke-linecap="round" stroke-linejoin="round" stroke-width="2"/>
          </g>
          <g id="Line_253">
            <line x1="351.06084" y1="-319.8371" x2="358.1897" y2="-319.8371" stroke="#303030" stroke-linecap="round" stroke-linejoin="round" stroke-width="2"/>
          </g>
          <g id="Line_252">
            <line x1="351.06084" y1="-313.0647" x2="358.1897" y2="-313.0647" stroke="#303030" stroke-linecap="round" stroke-linejoin="round" stroke-width="2"/>
          </g>
          <g id="Line_251">
            <line x1="351.06084" y1="-306.2923" x2="358.1897" y2="-306.2923" stroke="#303030" stroke-linecap="round" stroke-linejoin="round" stroke-width="2"/>
          </g>
          <g id="Graphic_250">
            <path d="M 341.1821 -324.5583 L 329.063 -324.5583 C 327.52775 -324.5583 326.28313 -325.8029 326.28313 -327.3382 L 326.28313 -351.76204 C 326.28313 -353.2973 327.5277 -354.5419 329.063 -354.5419 L 341.1821 -354.5419 C 342.71738 -354.5419 343.96203 -353.2973 343.96203 -351.76204 L 343.96203 -327.3382 C 343.96203 -325.8029 342.71738 -324.5583 341.1821 -324.5583 Z" stroke="#303030" stroke-linecap="round" stroke-linejoin="round" stroke-width="2"/>
          </g>
          <g id="Graphic_249">
            <rect x="328.674" y="-324.5583" width="10.774623" height="40.07565" stroke="#303030" stroke-linecap="round" stroke-linejoin="round" stroke-width="2"/>
          </g>
          <g id="Line_248">
            <path d="M 328.674 -284.48266 L 322.6254 -268.97266 L 345.49726 -268.97266 L 338.93237 -284.48266" stroke="#303030" stroke-linecap="round" stroke-linejoin="round" stroke-width="2"/>
          </g>
          <g id="Line_247">
            <line x1="335.3233" y1="-353.8848" x2="335.3233" y2="-341.32933" stroke="#303030" stroke-linecap="round" stroke-linejoin="round" stroke-width="2"/>
          </g>
          <g id="Graphic_246">
            <path d="M 403.50665 -324.5583 L 415.62576 -324.5583 C 417.16106 -324.5583 418.40564 -325.8029 418.40564 -327.3382 L 418.40564 -351.76204 C 418.40564 -353.2973 417.16106 -354.5419 415.62576 -354.5419 L 403.50665 -354.5419 C 401.97136 -354.5419 400.72677 -353.2973 400.72677 -351.76204 L 400.72677 -327.3382 C 400.72677 -325.8029 401.9714 -324.5583 403.50665 -324.5583 Z" stroke="#303030" stroke-linecap="round" stroke-linejoin="round" stroke-width="2"/>
          </g>
          <g id="Graphic_245">
            <rect x="405.24014" y="-324.5583" width="10.774623" height="40.07565" stroke="#303030" stroke-linecap="round" stroke-linejoin="round" stroke-width="2"/>
          </g>
          <g id="Line_244">
            <path d="M 416.01473 -284.48266 L 422.06335 -268.97266 L 399.1912 -268.97266 L 405.2401 -284.48266" stroke="#303030" stroke-linecap="round" stroke-linejoin="round" stroke-width="2"/>
          </g>
          <g id="Line_243">
            <line x1="409.36545" y1="-353.8848" x2="409.36545" y2="-341.32933" stroke="#303030" stroke-linecap="round" stroke-linejoin="round" stroke-width="2"/>
          </g>
          <g id="Graphic_242">
            <path d="M 389.23065 -295.44644 C 389.23065 -295.44644 395.0388 -294.58147 395.0388 -303.97328 L 395.0388 -312.62352" stroke="#303030" stroke-linecap="round" stroke-linejoin="round" stroke-width="2"/>
          </g>
          <g id="Line_241">
            <line x1="395.0388" y1="-317.99924" x2="395.0388" y2="-321.8919" stroke="#303030" stroke-linecap="round" stroke-linejoin="round" stroke-width="2"/>
          </g>
        </g>
      </g>
      <g id="Graphic_238">
        <path d="M 501.1773 -598.2654 C 501.9276 -595.65936 500.33736 -593.5491 497.62544 -593.552 C 494.9135 -593.5549 492.10685 -595.66985 491.35657 -598.2759 C 490.60627 -600.882 492.1965 -602.9923 494.9084 -602.98936 C 497.6203 -602.9865 500.427 -600.8715 501.1773 -598.2654" fill="black"/>
        <path d="M 501.1773 -598.2654 C 501.9276 -595.65936 500.33736 -593.5491 497.62544 -593.552 C 494.9135 -593.5549 492.10685 -595.66985 491.35657 -598.2759 C 490.60627 -600.882 492.1965 -602.9923 494.9084 -602.98936 C 497.6203 -602.9865 500.427 -600.8715 501.1773 -598.2654" stroke="gray" stroke-linecap="round" stroke-linejoin="round" stroke-width="1"/>
      </g>
      <g id="Group_220">
        <g id="Graphic_237">
          <path d="M 525.8962 -533.7952 C 531.00155 -537.04605 537.70984 -535.9455 537.70984 -535.9455 C 539.22246 -536.0771 540.68427 -535.8318 542.0053 -535.29247 L 542.0053 -535.774 C 536.157 -543.59784 539.1095 -553.0155 539.1095 -553.0155 L 539.10546 -554.0166 L 535.35625 -560.1691 L 535.69263 -563.8247 C 535.9076 -566.1615 534.0648 -568.1765 531.71856 -568.17064 L 528.1551 -568.16186 C 528.1551 -568.16186 516.8497 -570.81965 510.3169 -575.8698 L 509.96444 -575.8698 C 508.269 -571.0332 507.9655 -564.7282 507.9655 -564.7282 L 505.556 -559.03344 C 505.15745 -558.0916 505.67116 -557.01295 506.6536 -556.72885 C 507.62474 -556.2941 510.4785 -556.3939 510.9776 -553.7142 C 511.5268 -550.7646 513.22114 -545.35435 518.302 -544.62856 C 523.2724 -543.9189 525.6183 -538.679 525.8962 -533.7952 Z" fill="#f4d44e"/>
        </g>
        <g id="Graphic_236">
          <path d="M 533.42205 -536.0698 C 533.0151 -540.91884 530.61105 -545.9584 525.6944 -546.66076 C 519.20583 -547.58764 514.32426 -557.5413 517.8468 -571.6281 C 515.20324 -572.76994 512.4946 -574.1864 510.31654 -575.87015 L 509.9641 -575.87015 C 508.2686 -571.03355 507.96515 -564.72856 507.96515 -564.72856 L 505.5556 -559.0338 C 505.1571 -558.09194 505.6708 -557.0133 506.65326 -556.7292 C 507.62 -556.2963 510.47815 -556.395 510.97724 -553.7146 C 511.5264 -550.765 513.2208 -545.3547 518.3016 -544.6289 C 523.2406 -543.92326 525.61467 -538.7309 525.89584 -533.7952 C 528.124 -535.2135 530.8081 -535.8859 533.42205 -536.0698 Z" fill="#e8c842"/>
        </g>
        <g id="Graphic_235">
          <path d="M 537.70984 -536.6987 C 537.70984 -536.6987 526.0209 -538.6234 521.7598 -529.91655 C 517.98974 -522.2123 514.2855 -502.0516 517.6676 -486.86864 L 539.0192 -486.86864 Z" fill="#db4e33"/>
        </g>
        <g id="Graphic_234">
          <path d="M 574.278 -442.61194 L 568.0706 -445.42184 L 557.8109 -431.6634 C 557.8087 -424.06663 561.2702 -416.5671 565.5496 -413.9426 C 567.9598 -412.46433 571.0827 -414.01974 571.33755 -416.8355 L 576.6184 -438.28064 C 576.9003 -440.0865 575.9427 -441.858 574.278 -442.61194 Z" fill="#656566"/>
        </g>
        <g id="Graphic_233">
          <path d="M 563.6307 -439.46786 L 557.8109 -431.66304 C 557.8087 -424.06626 561.2702 -416.56674 565.5496 -413.9422 C 567.9598 -412.46396 571.08234 -414.01937 571.33755 -416.8351 L 573.0981 -423.9847 C 569.018 -424.10465 564.46875 -431.74677 563.6307 -439.46786 Z" fill="#545456"/>
        </g>
        <g id="Graphic_232">
          <path d="M 548.4719 -457.86254 C 546.57244 -459.06803 545.5245 -461.26037 545.80534 -463.49257 C 546.99474 -472.9541 542.1088 -480.5878 542.1088 -480.5878 L 541.5252 -480.232 C 540.5724 -475.3402 538.0897 -467.1361 531.7354 -461.5262 C 530.422 -460.36676 529.705 -458.6728 529.705 -456.92066 L 529.705 -448.1301 L 554.2014 -432.17675 C 556.1897 -430.8795 558.85225 -431.43305 560.1583 -433.4155 L 568.07025 -445.42184 Z" fill="#5085ba"/>
        </g>
        <g id="Graphic_231">
          <path d="M 557.83945 -439.6821 L 530.3968 -459.78504 C 529.2454 -457.53676 529.8849 -456.11663 529.70465 -448.1308 L 554.201 -432.1775 C 556.18934 -430.8802 558.8519 -431.4338 560.1579 -433.41625 L 563.4768 -438.45213 C 561.57586 -438.0649 559.5265 -438.4441 557.83945 -439.6821 Z" fill="#3a77aa"/>
        </g>
        <g id="Graphic_230">
          <path d="M 527.8154 -487.2456 L 517.5861 -487.2456 C 513.2244 -476.1925 508.12895 -470.4038 508.86863 -459.6066 L 511.25366 -424.40886 L 530.4586 -424.40886 L 530.4586 -456.5437 C 530.4586 -458.33457 531.23446 -460.0315 532.5712 -461.22235 C 542.0737 -469.68933 542.85284 -483.971 542.85284 -483.971 C 532.4509 -486.4533 531.0714 -487.2456 527.8154 -487.2456 Z" fill="#5085ba"/>
        </g>
        <g id="Graphic_229">
          <path d="M 527.63406 -487.2456 L 517.5861 -487.2456 C 513.2244 -476.1925 508.12895 -470.4038 508.86863 -459.6066 L 511.25366 -424.40886 L 521.30165 -424.40886 L 518.9166 -459.6066 C 518.1773 -470.4056 523.26583 -476.1768 527.63406 -487.2456 Z" fill="#3a77aa"/>
        </g>
        <g id="Graphic_228">
          <path d="M 511.254 -424.7862 C 503.88906 -423.07576 499.104 -418.30204 497.6093 -413.89944 C 496.76725 -411.4197 499.04185 -408.989 501.8342 -409.3963 L 528.7401 -409.52646 C 530.55986 -409.6822 531.0425 -411.1009 531.0425 -413.01863 L 530.45895 -424.78656 L 511.254 -424.7862 Z" fill="#656566"/>
        </g>
        <g id="Graphic_227">
          <path d="M 512.24855 -414.67934 C 513.4771 -418.298 516.6051 -422.12913 521.34114 -424.7862 L 511.254 -424.7862 C 503.8894 -423.07576 499.104 -418.30204 497.6093 -413.89944 C 496.76725 -411.4197 499.04185 -408.989 501.8342 -409.3963 L 515.4577 -409.4621 C 513.0632 -409.98716 511.4456 -412.31405 512.24855 -414.67934 Z" fill="#545456"/>
        </g>
        <g id="Graphic_226">
          <path d="M 548.5706 -502.1682 C 548.775 -505.3931 548.93224 -513.7625 546.4412 -519.1439 L 532.1412 -517.89926 C 532.1412 -517.89926 532.00266 -508.618 534.34673 -500.97297 C 534.7347 -499.7075 534.5182 -498.33565 533.7789 -497.238 C 520.4161 -477.39726 522.3053 -478.91866 521.10896 -478.24407 L 515.4365 -475.04404 C 514.03614 -474.2539 513.525 -472.48826 514.2873 -471.0725 C 514.92974 -469.87946 514.06356 -468.8659 514.0782 -468.9036 C 512.05184 -466.3098 512.876 -462.5134 515.79483 -460.9931 C 519.174 -459.2333 523.33786 -460.3379 525.40004 -463.5419 C 529.2783 -469.5672 529.44943 -470.1003 530.79935 -471.1197 C 533.8473 -473.4206 543.1684 -481.14684 546.7556 -492.0047 C 547.0847 -493.0003 547.4452 -493.98534 547.87885 -494.9404 C 549.2522 -497.96015 548.40317 -499.528 548.5706 -502.1682 Z" fill="#f4d44e"/>
        </g>
        <g id="Graphic_225">
          <path d="M 539.95885 -492.81824 C 540.2879 -493.81386 540.64844 -494.7989 541.0821 -495.7539 C 542.45467 -498.7748 541.6064 -500.343 541.77386 -502.9832 C 541.9618 -505.94815 542.10805 -513.25937 540.19505 -518.6009 L 532.1412 -517.9 C 532.1412 -517.9 532.00266 -508.61874 534.34673 -500.9737 C 534.7347 -499.70824 534.51785 -498.3364 533.7789 -497.23875 C 520.4157 -477.398 522.3053 -478.9194 521.10896 -478.2448 L 515.4365 -475.04514 C 514.03614 -474.255 513.525 -472.48936 514.2877 -471.0736 C 514.9268 -469.8868 514.09354 -468.94234 514.0789 -468.9047 C 512.23795 -466.54817 512.7557 -463.2052 515.0537 -461.4717 C 516.46906 -462.01614 517.7272 -462.9946 518.604 -464.3569 C 522.4823 -470.3822 522.6534 -470.9153 524.0033 -471.9347 C 527.0505 -474.23416 536.3716 -481.96 539.95885 -492.81824 Z" fill="#e8c842"/>
        </g>
        <g id="Graphic_224">
          <path d="M 548.43534 -520.76473 L 547.78524 -528.2372 C 547.4653 -531.91255 545.01886 -534.9166 541.76874 -536.1411 C 539.4795 -534.2358 538.11496 -531.2087 538.3987 -527.9443 C 539.33654 -519.00896 538.8506 -518.63565 539.7413 -517.8071 L 546.4412 -518.3903 C 547.6474 -518.4949 548.5403 -519.5578 548.43534 -520.76473 Z" fill="#ed694a"/>
        </g>
        <g id="Graphic_223">
          <path d="M 541.3358 -517.9457 C 540.4689 -517.8704 539.70254 -518.5413 539.6239 -519.4444 L 538.8894 -527.8829 C 538.60783 -531.1162 540.0477 -534.10416 542.4148 -535.8669 C 536.0272 -538.8406 529.0414 -533.8303 529.62896 -527.07704 L 530.36315 -518.6386 C 530.44176 -517.73546 531.23775 -517.0671 532.14087 -517.1453 C 540.57385 -517.87915 537.99357 -517.65465 546.4408 -518.38994 Z" fill="#db4e33"/>
        </g>
        <g id="Graphic_222">
          <path d="M 538.9307 -591.7427 C 538.9307 -591.7427 523.0329 -603.8057 508.9644 -589.7372 C 494.7676 -575.54035 527.7781 -567.78526 527.7781 -567.78526 L 531.3416 -567.794 C 533.6886 -567.7999 535.53066 -565.7849 535.31566 -563.4481 C 535.1277 -561.40604 534.8122 -560.0667 535.8294 -558.3976 L 539.1091 -553.0155 C 563.54004 -579.2793 538.9307 -591.7427 538.9307 -591.7427 Z" fill="#cc9d72"/>
        </g>
        <g id="Graphic_221">
          <path d="M 518.3817 -584.181 C 527.14375 -592.9434 536.61476 -591.5683 542.51353 -589.2849 C 540.5329 -590.9295 538.9307 -591.7423 538.9307 -591.7423 C 538.9307 -591.7423 523.0329 -603.8053 508.9644 -589.7368 C 500.07623 -580.8486 509.69204 -574.4855 518.12575 -570.96956 C 514.38056 -574.4164 513.0438 -578.8435 518.3817 -584.181 Z" fill="#c19067"/>
        </g>
      </g>
      <g id="Group_205">
        <g id="Group_206">
          <g id="Group_207">
            <g id="Group_217">
              <g id="Graphic_219">
                <path d="M 297.3868 -484.6583 C 303.48326 -483.30966 292.06323 -476.9353 293.93217 -470.82377 C 295.2049 -466.5909 292.7957 -470.82377 288.88116 -470.82377 C 288.88116 -470.82377 285.7142 -464.3433 286.74454 -454.5294 C 287.79 -444.7306 274.25864 -441.31637 273.2234 -451.13027 C 272.19305 -460.93395 280.2188 -466.22246 275.8044 -473.85934 C 265.2376 -492.13893 297.3868 -484.6583 297.3868 -484.6583" fill="#d5ab88"/>
              </g>
              <g id="Graphic_218">
                <path d="M 263.6266 -480.9258 C 263.6266 -469.7681 272.67294 -460.7222 283.83016 -460.7222 C 294.9874 -460.7222 304.03373 -469.76855 304.03373 -480.9258 C 304.03373 -492.083 294.9874 -501.12935 283.83016 -501.12935 C 272.67294 -501.12935 263.6266 -492.083 263.6266 -480.9258" fill="#d5ab88"/>
              </g>
            </g>
            <g id="Graphic_216">
              <path d="M 242.36203 -477.0365 C 247.59993 -477.294 252.6709 -477.8902 261.33326 -489.0474 C 267.09144 -496.4721 272.4705 -501.2301 285.77944 -501.1089 C 299.91187 -500.97264 311.74608 -488.95154 302.67975 -482.9359 C 298.7248 -480.3145 295.40645 -481.55704 289.0574 -479.7791 C 279.0819 -476.9859 277.5668 -466.37384 268.55596 -463.98995 C 250.9134 -459.33315 237.11925 -476.77905 242.36203 -477.0365" fill="#963b22"/>
            </g>
            <g id="Graphic_215">
              <path d="M 255.06012 -395.11064 C 257.8533 -395.11064 260.11113 -397.36846 260.11113 -400.16165 C 260.11113 -422.99194 283.65348 -446.86723 283.89098 -447.10473 C 285.8558 -449.07977 285.8558 -452.27693 283.88077 -454.24663 C 281.90574 -456.21634 278.7139 -456.21146 276.74375 -454.24175 C 275.65258 -453.1506 250.00912 -427.19415 250.00912 -400.16165 C 250.00912 -397.36846 252.26693 -395.11064 255.06012 -395.11064" fill="#cc9b7a"/>
            </g>
            <g id="Graphic_214">
              <path d="M 295.46727 -324.39836 C 301.04832 -324.39836 305.56928 -328.92375 305.56928 -334.50037 L 305.56928 -369.8565 C 305.56928 -371.614 305.1098 -373.3418 304.23572 -374.8671 L 284.03215 -410.22326 C 281.26914 -415.06695 275.0919 -416.7592 270.2531 -413.9811 C 265.4094 -411.2132 263.72736 -405.0462 266.49524 -400.20204 L 285.36526 -367.1743 L 285.36526 -334.49992 C 285.3657 -328.92375 289.8911 -324.39836 295.46727 -324.39836" fill="#2a6797"/>
            </g>
            <g id="Graphic_213">
              <path d="M 250.00424 -339.55093 C 252.96923 -339.55093 255.90358 -340.84897 257.8937 -343.3443 L 278.0973 -368.59886 C 279.11255 -369.8565 279.7993 -371.34145 280.1176 -372.92227 L 285.1686 -398.17685 C 286.26466 -403.6469 282.719 -408.9758 277.24894 -410.06655 C 271.75356 -411.1728 266.44996 -407.61163 265.35924 -402.1469 L 260.78812 -379.2966 L 242.1201 -355.9616 C 238.63481 -351.60755 239.342 -345.24873 243.7009 -341.76346 C 245.5592 -340.2781 247.78682 -339.55093 250.00424 -339.55093" fill="#4289c1"/>
            </g>
            <g id="Graphic_212">
              <path d="M 260.11113 -405.21265 C 260.11113 -405.21265 260.11113 -400.16165 270.21314 -400.16165 L 290.4167 -400.16165 C 300.5187 -430.46723 292.23015 -460.77237 280.3147 -460.77237 C 265.16213 -460.77237 265.16213 -440.5688 260.11113 -415.3142" fill="#9268ca"/>
            </g>
            <g id="Graphic_211">
              <path d="M 285.3657 -440.5688 C 285.3706 -440.3415 285.6991 -417.5769 303.54896 -404.1872 L 303.49836 -404.1166 C 304.7258 -403.1972 305.56928 -401.7984 305.56928 -400.14655 C 305.56928 -397.35336 303.30658 -395.09555 300.51827 -395.09555 C 299.38182 -395.09555 298.38165 -395.5399 297.5382 -396.1765 L 297.48758 -396.10593 C 275.5163 -412.58717 275.2637 -439.41725 275.2637 -440.5537 Z" fill="#d5ab88"/>
            </g>
            <g id="Group_208">
              <g id="Graphic_210">
                <path d="M 233.94206 -344.30894 C 232.57343 -345.67757 233.1341 -347.7232 234.59374 -349.05674 C 236.93235 -351.19336 237.9929 -351.95603 237.9929 -351.95603 C 239.28073 -352.80438 242.40243 -354.06247 243.70047 -352.7693 C 253.161 -343.34917 260.38858 -329.88352 260.6514 -325.1912 C 260.8081 -322.42333 257.3934 -320.8727 255.4539 -322.8122 C 249.73122 -328.53487 238.90206 -339.35382 233.94206 -344.30894" fill="#292f33"/>
              </g>
              <g id="Graphic_209">
                <path d="M 285.79498 -319.78684 C 283.86035 -319.77175 282.79492 -321.61005 282.8757 -323.58997 C 282.9969 -326.7516 283.1989 -328.0399 283.1989 -328.0399 C 283.49677 -329.555 284.78993 -332.66162 286.62868 -332.6767 C 299.97313 -332.79302 314.64093 -328.4794 318.16127 -325.37322 C 320.2424 -323.53448 318.94924 -320.01946 316.20666 -319.99904 C 308.10987 -319.94843 292.80548 -319.837 285.79498 -319.78684" fill="#292f33"/>
              </g>
            </g>
          </g>
        </g>
      </g>
      <g id="Group_192">
        <g id="Group_193">
          <g id="Group_194">
            <g id="Graphic_204">
              <path d="M 500.9426 -486.0045 C 505.8962 -496.6474 502.073 -508.9221 492.40065 -513.4276 C 482.7283 -517.9332 466.9664 -513.83816 464.46574 -502.3742 C 461.98615 -490.98476 464.3111 -473.6393 474.4741 -474.11406 C 477.2841 -474.24715 480.1156 -474.47116 482.85626 -474.9084 C 483.21336 -473.56996 483.1337 -470.84527 482.6271 -468.2593 C 480.6597 -458.3203 494.20305 -453.5959 496.1601 -463.55083 C 497.30126 -469.3789 495.1258 -473.90036 494.1712 -478.14486 C 496.92775 -479.9796 499.2897 -482.4587 500.9426 -486.0045" fill="#d5ab88"/>
            </g>
            <g id="Graphic_203">
              <path d="M 503.46486 -508.71964 C 497.3383 -516.8459 488.45514 -520.6049 472.5386 -515.53934 C 458.6377 -511.1191 463.01014 -499.1429 465.628 -501.71295 C 469.7975 -505.8028 474.99663 -504.15505 474.99663 -504.15505 L 478.36665 -491.811 C 478.36665 -491.811 480.2487 -490.5208 481.3102 -494.5835 C 482.37683 -498.6466 487.91667 -498.7319 489.5269 -495.3141 C 492.0276 -490.0086 488.28455 -489.2461 487.762 -486.191 C 486.11427 -476.53976 496.8959 -476.25717 496.8959 -476.25717 C 496.8959 -476.25717 498.9382 -475.30254 502.9531 -482.13864 C 506.9628 -488.97475 509.5488 -500.65194 503.46486 -508.71964" fill="#963b22"/>
            </g>
            <g id="Graphic_202">
              <path d="M 517.6268 -405.9161 C 514.6781 -405.9161 512.2946 -408.29963 512.2946 -411.24833 C 512.2946 -435.34974 487.44146 -460.5543 487.19074 -460.80505 C 485.1165 -462.89004 485.1165 -466.2652 487.2015 -468.3446 C 489.2865 -470.42396 492.65606 -470.4188 494.7359 -468.3446 C 495.8878 -467.1875 522.959 -439.7859 522.959 -411.24833 C 522.959 -408.29963 520.5755 -405.9161 517.6268 -405.9161" fill="#cc9b7a"/>
            </g>
            <g id="Graphic_201">
              <path d="M 474.9699 -331.26634 C 469.07813 -331.26634 464.30547 -336.0437 464.30547 -341.9308 L 464.30547 -379.25544 C 464.30547 -381.1108 464.7905 -382.93476 465.7133 -384.54502 L 487.0417 -421.86967 C 489.95855 -426.98304 496.4797 -428.7695 501.58794 -425.83674 C 506.7013 -422.9199 508.477 -416.40435 505.555 -411.2905 L 485.6344 -376.4239 L 485.6344 -341.93033 C 485.6344 -336.04416 480.85655 -331.26634 474.9699 -331.26634" fill="#2a6797"/>
            </g>
            <g id="Graphic_200">
              <path d="M 522.9642 -347.26302 C 519.8341 -347.26302 516.7364 -348.63334 514.63544 -351.2676 L 493.307 -377.92825 C 492.2352 -379.2559 491.5102 -380.82353 491.1742 -382.49236 L 485.842 -409.15303 C 484.6849 -414.92766 488.42796 -420.55325 494.2026 -421.7047 C 500.0039 -422.87257 505.6028 -419.1131 506.75427 -413.3441 L 511.5799 -389.2216 L 531.2873 -364.58737 C 534.9666 -359.9909 534.22006 -353.27806 529.61845 -349.59874 C 527.6567 -348.03066 525.30505 -347.26302 522.9642 -347.26302" fill="#4289c1"/>
            </g>
            <g id="Graphic_199">
              <path d="M 512.29504 -416.58056 C 512.29504 -416.58056 512.29504 -411.24833 501.6306 -411.24833 L 480.30215 -411.24833 C 469.6377 -443.2412 478.38774 -475.23365 490.9666 -475.23365 C 506.9628 -475.23365 506.9628 -453.9052 512.29504 -427.24455" fill="#77b255"/>
            </g>
            <g id="Graphic_198">
              <path d="M 485.6344 -453.9052 C 485.6292 -453.66526 485.2824 -429.6332 466.43873 -415.498 L 466.49216 -415.4235 C 465.19636 -414.4529 464.30594 -412.9762 464.30594 -411.2324 C 464.30594 -408.2837 466.6946 -405.90017 469.63816 -405.90017 C 470.8379 -405.90017 471.89374 -406.3693 472.78417 -407.0413 L 472.8376 -406.9668 C 496.03217 -424.36567 496.2988 -452.69517 496.2988 -453.8893 Z" fill="#d5ab88"/>
            </g>
            <g id="Group_195">
              <g id="Graphic_197">
                <path d="M 539.9258 -352.28594 C 541.3706 -353.73077 540.7787 -355.8903 539.2378 -357.2981 C 536.769 -359.55367 535.6494 -360.3588 535.6494 -360.3588 C 534.2899 -361.25438 530.9944 -362.5825 529.6241 -361.21735 C 519.6368 -351.27274 512.0068 -337.05737 511.7294 -332.1038 C 511.56395 -329.1818 515.16876 -327.54484 517.21626 -329.59235 C 523.25755 -335.63363 534.68964 -347.05494 539.9258 -352.28594" fill="#292f33"/>
              </g>
              <g id="Graphic_196">
                <path d="M 485.18635 -326.39807 C 487.2287 -326.38214 488.35344 -328.3228 488.26815 -330.41294 C 488.1402 -333.75062 487.927 -335.11062 487.927 -335.11062 C 487.6125 -336.7101 486.24736 -339.98967 484.30624 -340.0056 C 470.2188 -340.1284 454.73436 -335.5746 451.018 -332.2955 C 448.821 -330.35436 450.1862 -326.64364 453.08145 -326.6221 C 461.62904 -326.56913 477.78553 -326.4515 485.18635 -326.39807" fill="#292f33"/>
              </g>
            </g>
          </g>
        </g>
      </g>
      <g id="Graphic_191">
        <path d="M 426.4819 -581.72165 L 408.0887 -563.3288 L 395.8268 -563.3288 L 395.8268 -544.93564 L 417.2853 -544.93564 L 432.61283 -560.2632 L 432.61283 -523.47717 L 463.2679 -523.47717 L 463.2679 -581.72165 Z" fill="#b20d24"/>
      </g>
      <g id="Group_188">
        <g id="Graphic_190">
          <path d="M 386.54663 -558.85345 C 381.4798 -558.85345 377.37284 -556.7738 377.37284 -554.20776 C 377.37284 -551.6417 381.47945 -549.56206 386.54663 -549.56206 L 395.7204 -549.56206 L 395.7204 -558.85345 Z" fill="#ffd4b0"/>
        </g>
        <g id="Graphic_189">
          <path d="M 362.08365 -558.85345 L 352.90986 -558.85345 L 352.90986 -549.56206 L 362.08365 -549.56206 C 367.1505 -549.56206 371.25744 -551.6417 371.25744 -554.20776 C 371.25744 -556.7738 367.1505 -558.85345 362.08365 -558.85345 Z" fill="#ffd4b0"/>
        </g>
      </g>
      <g id="Graphic_187">
        <path d="M 340.64798 -563.3288 L 322.2548 -581.72165 L 285.4688 -581.72165 L 285.4688 -523.47717 L 316.12386 -523.47717 L 316.12386 -560.2632 L 331.4514 -544.93564 L 352.90986 -544.93564 L 352.90986 -563.3288 Z" fill="#4db5ff"/>
      </g>
      <g id="Graphic_186">
        <path d="M 289.5151 -604.0695 C 292.39045 -596.12685 301.16095 -592.0191 309.10044 -594.8944 C 315.16714 -597.09225 319.20443 -602.85856 319.18915 -609.3114 L 319.18915 -615.4424 L 318.13764 -615.4424 C 307.49747 -615.4302 297.26187 -611.362 289.5151 -604.0695 Z" fill="#ffd4b0"/>
      </g>
      <g id="Graphic_185">
        <path d="M 303.86197 -624.63895 C 295.3981 -624.63895 288.53444 -617.7753 288.53444 -609.3114 C 288.5497 -607.5213 288.881 -605.7464 289.51546 -604.0695 C 297.26187 -611.36236 307.49782 -615.4302 318.138 -615.4424 L 319.1895 -615.4424 L 319.1895 -624.63895 Z" fill="#963a22"/>
      </g>
      <g id="Graphic_184">
        <path d="M 429.54753 -615.4424 L 429.54753 -609.3114 C 429.5291 -600.86596 436.3591 -594.0023 444.80457 -593.98076 C 451.2574 -593.9655 457.02374 -598.0028 459.2216 -604.0695 C 451.47516 -611.36236 441.2392 -615.4302 430.59904 -615.4424 C 430.5987 -615.4424 429.54753 -615.4424 429.54753 -615.4424 Z" fill="#ffd4b0"/>
      </g>
      <g id="Graphic_183">
        <path d="M 444.8747 -624.63895 L 429.5472 -624.63895 L 429.5472 -615.4424 L 430.5987 -615.4424 C 441.2392 -615.4302 451.4748 -611.362 459.2212 -604.0695 C 459.8557 -605.7464 460.18697 -607.5213 460.20225 -609.3114 C 460.20225 -617.7753 453.3386 -624.63895 444.8747 -624.63895 Z" fill="#963a22"/>
      </g>
      <g id="Group_180">
        <g id="Graphic_182">
          <path d="M 285.4688 -517.3462 C 285.4688 -510.5746 290.95903 -505.08434 297.73068 -505.08434 L 316.12386 -505.08434 C 319.51107 -505.08434 322.2548 -502.3406 322.2548 -498.9534 L 322.2548 -465.23303 C 322.2548 -461.8458 324.99853 -459.1021 328.38574 -459.1021 L 334.5167 -459.1021 C 337.9039 -459.1021 340.64763 -461.8458 340.64763 -465.23303 L 340.64763 -505.08434 C 340.64763 -515.24354 332.41366 -523.4775 322.25445 -523.4775 L 285.4688 -523.4775 Z" fill="#235087"/>
        </g>
        <g id="Graphic_181">
          <path d="M 374.36834 -456.0361 C 372.67612 -456.0361 371.3027 -457.4095 371.3027 -459.10174 L 371.3027 -532.67376 C 371.3027 -534.366 372.67612 -535.7394 374.36834 -535.7394 C 376.06056 -535.7394 377.434 -534.366 377.434 -532.67376 L 377.434 -459.10174 C 377.434 -457.4095 376.06056 -456.0361 374.36834 -456.0361 Z" fill="#235087"/>
        </g>
      </g>
      <g id="Graphic_179">
        <path d="M 411.15435 -529.6081 L 337.58233 -529.6081 C 335.8901 -529.6081 334.5167 -530.98154 334.5167 -532.67376 C 334.5167 -534.366 335.8901 -535.7394 337.58233 -535.7394 L 411.15435 -535.7394 C 412.84657 -535.7394 414.22 -534.366 414.22 -532.67376 C 414.22 -530.98154 412.84657 -529.6081 411.15435 -529.6081 Z" fill="#8994a3"/>
      </g>
      <g id="Graphic_178">
        <path d="M 386.63023 -456.0361 L 362.10645 -456.0361 C 360.41424 -456.0361 359.0408 -457.4095 359.0408 -459.10174 C 359.0408 -460.79395 360.41424 -462.1674 362.10645 -462.1674 L 386.63058 -462.1674 C 388.3228 -462.1674 389.6962 -460.79395 389.6962 -459.10174 C 389.6962 -457.4095 388.32245 -456.0361 386.63023 -456.0361 Z" fill="#235087"/>
      </g>
      <g id="Group_175">
        <g id="Graphic_177">
          <path d="M 426.4819 -523.47717 C 416.3227 -523.47717 408.0887 -515.2432 408.0887 -505.084 L 408.0887 -465.23233 C 408.0887 -461.8451 410.83244 -459.1014 414.21965 -459.1014 L 420.3506 -459.1014 C 423.7378 -459.1014 426.48154 -461.8451 426.48154 -465.23233 L 426.48154 -498.9527 C 426.48154 -502.3399 429.22527 -505.08364 432.6125 -505.08364 L 451.00566 -505.08364 C 457.7773 -505.08364 463.26755 -510.5739 463.26755 -517.3455 L 463.26755 -523.4765 L 426.4819 -523.4765 Z" fill="#163768"/>
        </g>
        <g id="Graphic_176">
          <path d="M 292.5193 -506.29524 C 294.14414 -505.5104 295.9249 -505.0965 297.73068 -505.08434 L 316.12386 -505.08434 C 319.51107 -505.08434 322.2548 -502.3406 322.2548 -498.9534 L 322.2548 -465.23303 C 322.2548 -461.8458 324.99853 -459.1021 328.38574 -459.1021 L 334.5167 -459.1021 C 337.9039 -459.1021 340.64763 -461.8458 340.64763 -465.23303 L 340.64763 -505.08434 C 340.64763 -507.9722 339.9611 -510.81697 338.64878 -513.3888 C 323.45633 -509.9613 308.04025 -507.5919 292.5193 -506.29524 Z" fill="#163768"/>
        </g>
      </g>
      <g id="Graphic_174">
        <path d="M 432.61283 -550.2085 L 432.61283 -523.47717 L 463.2679 -523.47717 L 463.2679 -570.2536 C 453.42157 -563.0222 443.18597 -556.3304 432.61283 -550.2085 Z" fill="#b20d24"/>
      </g>
      <g id="Graphic_173">
        <path d="M 441.8094 -597.0492 C 438.4986 -597.0582 435.28294 -598.14654 432.64964 -600.15164 C 437.65267 -593.39215 447.1861 -591.9666 453.9456 -596.96966 C 456.3674 -598.7629 458.20374 -601.2337 459.2212 -604.0695 C 458.20027 -605.0227 457.1397 -605.9211 456.03925 -606.7611 C 453.7435 -600.9087 448.09663 -597.05544 441.8094 -597.0492 Z" fill="#edc4a2"/>
      </g>
      <g id="Graphic_172">
        <path d="M 454.0345 -621.5365 C 457.2717 -617.31516 458.035 -611.6933 456.03925 -606.7608 C 457.1397 -605.9176 458.20027 -605.0227 459.2212 -604.0691 C 461.62777 -610.3963 459.5032 -617.5513 454.0345 -621.5424 Z" fill="#f08015"/>
      </g>
      <g id="Graphic_171">
        <path d="M 316.12386 -615.3472 L 316.12386 -612.3767 C 316.12386 -603.91286 309.2602 -597.0492 300.79632 -597.0492 C 297.4949 -597.0492 294.282 -598.1344 291.65495 -600.136 C 296.69757 -593.3706 306.2713 -591.9725 313.0398 -597.0155 C 316.92083 -599.90925 319.2013 -604.4709 319.18915 -609.3111 L 319.18915 -615.4424 L 318.13764 -615.4424 C 317.4636 -615.4424 316.7951 -615.3778 316.12386 -615.3472 Z" fill="#edc4a2"/>
      </g>
      <g id="Graphic_170">
        <path d="M 316.12386 -624.63895 L 316.12386 -615.34756 C 316.7951 -615.3781 317.4636 -615.4427 318.138 -615.4427 L 319.1895 -615.4427 L 319.1895 -624.63895 Z" fill="#f08015"/>
      </g>
      <g id="Graphic_169">
        <path d="M 325.32044 -551.06693 L 331.4514 -544.93564 L 352.90986 -544.93564 L 352.90986 -551.06693 Z" fill="#3596d8"/>
      </g>
      <g id="Graphic_168">
        <path d="M 395.8268 -544.93564 L 417.2853 -544.93564 L 423.41624 -551.06693 L 395.8268 -551.06693 Z" fill="#b20d24"/>
      </g>
      <g id="Graphic_167">
        <circle cx="395.6736" cy="-402.8972" r="5.02537847843548" fill="#7f7fff"/>
        <circle cx="395.6736" cy="-402.8972" r="5.02537847843548" stroke="black" stroke-linecap="round" stroke-linejoin="round" stroke-width="1"/>
      </g>
      <g id="Graphic_166">
        <circle cx="389.98384" cy="-394.8062" r="3.06565035722664" fill="#7f7fff"/>
        <circle cx="389.98384" cy="-394.8062" r="3.06565035722664" stroke="black" stroke-linecap="round" stroke-linejoin="round" stroke-width="1"/>
      </g>
      <g id="Group_129">
        <g id="Group_163">
          <g id="Graphic_165">
            <path d="M 106.80368 -377.67297 C 105.80591 -377.67297 104.99603 -378.48284 104.99603 -379.48062 L 104.99603 -381.2885 C 104.99603 -382.28627 105.80591 -383.09614 106.80368 -383.09614 C 107.80146 -383.09614 108.61134 -382.28627 108.61134 -381.2885 L 108.61134 -379.48083 C 108.61155 -378.48284 107.80168 -377.67297 106.80368 -377.67297" fill="#434c6d"/>
          </g>
          <g id="Graphic_164">
            <path d="M 128.49637 -377.67297 C 127.49859 -377.67297 126.68871 -378.48284 126.68871 -379.48062 L 126.68871 -381.2885 C 126.68871 -382.28627 127.49859 -383.09614 128.49637 -383.09614 C 129.49415 -383.09614 130.30402 -382.28627 130.30402 -381.2885 L 130.30402 -379.48083 C 130.30423 -378.48284 129.49436 -377.67297 128.49637 -377.67297" fill="#434c6d"/>
          </g>
        </g>
        <g id="Graphic_162">
          <path d="M 179.11277 -484.32873 L 132.11189 -484.32873 C 131.1141 -484.32873 130.30423 -483.51886 130.30423 -482.5211 L 130.30423 -466.25157 L 130.32054 -466.25157 C 136.06 -466.25157 140.49259 -461.2044 139.74966 -455.5118 L 139.26517 -451.7897 L 179.11277 -451.7897 C 180.11055 -451.7897 180.92042 -452.5996 180.92042 -453.59736 L 180.92042 -482.5211 C 180.92042 -483.51886 180.11055 -484.32873 179.11277 -484.32873" fill="#7383bf"/>
        </g>
        <g id="Graphic_161">
          <path d="M 179.11277 -449.98904 L 137.21496 -449.98904 L 137.96404 -455.74417 C 138.25087 -457.94395 137.57637 -460.1611 136.11317 -461.82787 C 134.64976 -463.49486 132.53832 -464.4507 130.32054 -464.4507 L 128.51988 -464.4507 L 128.50357 -466.25135 L 128.50357 -482.52087 C 128.50357 -484.5107 130.12226 -486.1294 132.11189 -486.1294 L 179.11277 -486.1294 C 181.1026 -486.1294 182.72108 -484.5107 182.72108 -482.52087 L 182.72108 -453.59736 C 182.72108 -451.60773 181.1026 -449.98904 179.11277 -449.98904 Z M 141.31518 -453.59037 L 179.11277 -453.59037 L 179.11976 -482.52087 L 179.11277 -482.52807 L 132.11189 -482.52807 L 132.10553 -467.909 C 134.69361 -467.49445 137.07154 -466.1948 138.81925 -464.2041 C 140.96648 -461.7588 141.95621 -458.50554 141.53507 -455.27897 Z" fill="#434c6d"/>
        </g>
        <g id="Graphic_160">
          <path d="M 139.54354 -459.02053 C 139.8183 -457.9069 139.90875 -456.7265 139.74966 -455.5118 L 139.26348 -451.7897 L 179.11298 -451.7897 C 180.11076 -451.7897 180.92063 -452.5996 180.92063 -453.59736 L 180.92063 -459.02053 L 139.54354 -459.02053 Z" fill="#7383bf"/>
        </g>
        <g id="Graphic_159">
          <path d="M 179.11277 -449.98904 L 137.21221 -449.98904 L 137.96425 -455.745 C 138.0869 -456.6816 138.03013 -457.63826 137.79541 -458.5888 L 137.24398 -460.8212 L 182.7213 -460.8212 L 182.7213 -453.59736 C 182.7213 -451.60773 181.1026 -449.98904 179.11277 -449.98904 Z M 141.31454 -453.59037 L 179.11277 -453.59037 L 179.11743 -457.21987 L 141.61705 -457.21987 C 141.64671 -456.57036 141.61938 -455.9217 141.53486 -455.2779 Z" fill="#434c6d"/>
        </g>
        <g id="Graphic_158">
          <path d="M 164.65091 -440.94337 L 146.57374 -440.94337 L 146.57374 -443.95513 C 146.57374 -445.2874 147.65287 -446.36654 148.98515 -446.36654 L 162.2393 -446.36654 C 163.57157 -446.36654 164.6507 -445.2874 164.6507 -443.95513 L 164.6507 -440.94337 Z" fill="#7383bf"/>
        </g>
        <g id="Graphic_157">
          <path d="M 166.45157 -439.1427 L 144.77287 -439.1427 L 144.77287 -443.95513 C 144.77287 -446.2778 146.6625 -448.1672 148.98515 -448.1672 L 162.2393 -448.1672 C 164.56194 -448.1672 166.45157 -446.2778 166.45157 -443.95513 Z M 148.3742 -442.74403 L 162.85025 -442.74403 L 162.85025 -443.95513 C 162.85025 -444.29196 162.57612 -444.5659 162.2393 -444.5659 L 148.98515 -444.5659 C 148.64832 -444.5659 148.3742 -444.29196 148.3742 -443.95513 Z" fill="#434c6d"/>
        </g>
        <g id="Graphic_156">
          <rect x="151.99692" y="-451.7897" width="7.230824" height="5.423171" fill="#7383bf"/>
        </g>
        <g id="Graphic_155">
          <path d="M 161.0284 -444.5659 L 150.19625 -444.5659 L 150.19625 -453.59037 L 161.0284 -453.59037 Z M 153.79758 -448.1672 L 157.42708 -448.1672 L 157.42708 -449.98904 L 153.79758 -449.98904 Z" fill="#434c6d"/>
        </g>
        <g id="Graphic_154">
          <rect x="146.57374" y="-433.71254" width="32.539024" height="18.077377" fill="#845c46"/>
        </g>
        <g id="Graphic_153">
          <path d="M 180.91343 -413.8345 L 144.77287 -413.8345 L 144.77287 -435.513 L 180.91343 -435.513 Z M 148.3742 -417.43583 L 177.3121 -417.43583 L 177.3121 -431.91167 L 148.3742 -431.91167 Z" fill="#553323"/>
        </g>
        <g id="Graphic_152">
          <rect x="146.57374" y="-415.63516" width="32.539024" height="18.077165" fill="#845c46"/>
        </g>
        <g id="Graphic_151">
          <path d="M 180.91343 -395.75713 L 144.77287 -395.75713 L 144.77287 -417.43583 L 180.91343 -417.43583 Z M 148.3742 -399.35845 L 177.3121 -399.35845 L 177.3121 -413.8345 L 148.3742 -413.8345 Z" fill="#553323"/>
        </g>
        <g id="Graphic_150">
          <rect x="146.57374" y="-397.558" width="32.539024" height="18.077377" fill="#845c46"/>
        </g>
        <g id="Graphic_149">
          <path d="M 180.91343 -377.67996 L 144.77287 -377.67996 L 144.77287 -399.35845 L 180.91343 -399.35845 Z M 148.3742 -381.2813 L 177.3121 -381.2813 L 177.3121 -395.75713 L 148.3742 -395.75713 Z" fill="#553323"/>
        </g>
        <g id="Group_145">
          <g id="Graphic_148">
            <path d="M 164.65091 -422.8662 L 161.0354 -422.8662 C 160.03761 -422.8662 159.22774 -423.67607 159.22774 -424.67385 C 159.22774 -425.67163 160.03761 -426.4815 161.0354 -426.4815 L 164.65091 -426.4815 C 165.6506 -426.4815 166.45856 -425.67163 166.45856 -424.67385 C 166.45856 -423.67586 165.6506 -422.8662 164.65091 -422.8662" fill="#d7b740"/>
          </g>
          <g id="Graphic_147">
            <path d="M 164.65091 -404.7888 L 161.0354 -404.7888 C 160.03761 -404.7888 159.22774 -405.5987 159.22774 -406.5965 C 159.22774 -407.59426 160.03761 -408.40413 161.0354 -408.40413 L 164.65091 -408.40413 C 165.6506 -408.40413 166.45856 -407.59426 166.45856 -406.5965 C 166.45856 -405.5987 165.6506 -404.7888 164.65091 -404.7888" fill="#d7b740"/>
          </g>
          <g id="Graphic_146">
            <path d="M 164.65091 -386.71166 L 161.0354 -386.71166 C 160.03761 -386.71166 159.22774 -387.52153 159.22774 -388.5193 C 159.22774 -389.5171 160.03761 -390.32696 161.0354 -390.32696 L 164.65091 -390.32696 C 165.6506 -390.32696 166.45856 -389.5171 166.45856 -388.5193 C 166.45856 -387.52153 165.6506 -386.71166 164.65091 -386.71166" fill="#d7b740"/>
          </g>
        </g>
        <g id="Graphic_144">
          <rect x="81.4957" y="-433.71254" width="7.230824" height="54.23192" fill="#845c46"/>
        </g>
        <g id="Graphic_143">
          <path d="M 90.52718 -377.67996 L 79.69503 -377.67996 L 79.69503 -435.513 L 90.52718 -435.513 Z M 83.29636 -381.2813 L 86.92586 -381.2813 L 86.92586 -431.91167 L 83.29636 -431.91167 Z" fill="#553323"/>
        </g>
        <g id="Group_140">
          <g id="Graphic_142">
            <rect x="103.18838" y="-386.71166" width="28.923507" height="5.423171" fill="#d1d4d1"/>
          </g>
          <g id="Graphic_141">
            <path d="M 117.65003 -393.9425 C 116.65225 -393.9425 115.84237 -394.75236 115.84237 -395.75013 L 115.84237 -422.866 C 115.84237 -423.86377 116.65225 -424.67364 117.65003 -424.67364 C 118.6478 -424.67364 119.45768 -423.86377 119.45768 -422.866 L 119.45768 -395.75013 C 119.45789 -394.75236 118.64802 -393.9425 117.65003 -393.9425" fill="#d1d4d1"/>
          </g>
        </g>
        <g id="Graphic_139">
          <path d="M 135.7274 -410.212 L 99.57286 -410.212 C 99.57286 -414.20523 102.81045 -417.4428 106.80368 -417.4428 L 128.49637 -417.4428 C 132.48981 -417.44303 135.7274 -414.20523 135.7274 -410.212" fill="#88c057"/>
        </g>
        <g id="Graphic_138">
          <path d="M 137.84943 -440.94337 L 136.90588 -433.71254 L 182.72807 -433.71254 L 182.72807 -440.94337 Z" fill="#845c46"/>
        </g>
        <g id="Graphic_137">
          <path d="M 184.52874 -431.91167 L 134.85482 -431.91167 L 136.26845 -442.7438 L 184.52874 -442.7438 Z M 138.95673 -435.513 L 180.9272 -435.513 L 180.9272 -439.1427 L 139.43041 -439.1427 Z" fill="#553323"/>
        </g>
        <g id="Graphic_136">
          <path d="M 97.75885 -440.94337 L 77.88103 -440.94337 L 77.88103 -433.71254 L 98.7024 -433.71254 Z" fill="#845c46"/>
        </g>
        <g id="Graphic_135">
          <path d="M 100.75346 -431.91167 L 76.08036 -431.91167 L 76.08036 -442.74403 L 99.33962 -442.74403 Z M 79.68169 -435.513 L 96.65155 -435.513 L 96.17787 -439.1427 L 79.68169 -439.1427 Z" fill="#553323"/>
        </g>
        <g id="Group_132">
          <g id="Graphic_134">
            <path d="M 135.7274 -473.4824 C 135.26453 -473.4824 134.80186 -473.6595 134.44936 -474.012 C 133.74244 -474.7189 133.74244 -475.8614 134.44936 -476.5681 L 138.06487 -480.1836 C 138.7718 -480.8905 139.91426 -480.8905 140.62097 -480.1836 C 141.32767 -479.4767 141.32789 -478.3342 140.62097 -477.6275 L 137.00545 -474.012 C 136.65294 -473.6595 136.19007 -473.4824 135.7274 -473.4824" fill="#434c6d"/>
          </g>
          <g id="Graphic_133">
            <path d="M 139.34271 -468.0592 C 138.87983 -468.0592 138.41717 -468.2363 138.06466 -468.5888 C 137.35774 -469.29574 137.35774 -470.4382 138.06466 -471.1449 L 145.2957 -478.37595 C 146.00262 -479.0829 147.14508 -479.0829 147.8518 -478.37595 C 148.5585 -477.66904 148.55871 -476.52657 147.8518 -475.81986 L 140.62076 -468.5888 C 140.26825 -468.2363 139.80559 -468.0592 139.34271 -468.0592" fill="#434c6d"/>
          </g>
        </g>
        <g id="Graphic_131">
          <path d="M 128.21059 -422.8662 L 107.39833 -422.8662 C 102.20649 -422.8662 97.81923 -426.71665 97.14853 -431.86506 L 93.95077 -456.3867 C 93.1428 -462.5727 97.96032 -468.0592 104.19866 -468.0592 L 131.40857 -468.0592 C 137.64882 -468.0592 142.46463 -462.5727 141.65836 -456.3867 L 138.4606 -431.86485 C 137.788 -426.71665 133.40243 -422.8662 128.21059 -422.8662" fill="#23a24d"/>
        </g>
        <g id="Graphic_130">
          <path d="M 123.0732 -386.71166 L 112.22686 -386.71166 L 112.22686 -392.14203 C 112.22686 -394.1342 113.843 -395.75035 115.83517 -395.75035 L 119.4651 -395.75035 C 121.45726 -395.75035 123.07341 -394.1342 123.07341 -392.14203 L 123.07341 -386.71166 Z" fill="#aeb7ae"/>
        </g>
      </g>
      <g id="Group_126">
        <g id="Graphic_128">
          <path d="M -.19929746 -1218.5547 L 469.0246 -1434.7492 L 469.0246 -919.4966 L -.19929746 -707.79125 Z" fill="white"/>
        </g>
        <g id="Graphic_127">
          <path d="M 455.2239 -1412.7323 L 455.2239 -928.8752 L 13.601405 -729.608 L 13.601405 -1209.2619 Z M 482.8253 -1456.7375 L -14 -1227.819 L -14 -685.9459 L 482.8253 -910.118 L 482.8253 -1456.7375 Z" fill="white"/>
        </g>
      </g>
      <g id="Graphic_125">
        <path d="M 247.81474 -912.0246 L 247.81474 -1796 L 750.9914 -1576.714 L 750.9914 -696.4697 Z" fill="white"/>
      </g>
      <g id="Line_124">
        <line x1="368.77525" y1="-942.7174" x2="368.77525" y2="-562.71124" stroke="#7496c4" stroke-linecap="square" stroke-linejoin="miter" stroke-width="1"/>
      </g>
      <g id="Group_114">
        <g id="Graphic_123">
          <path d="M 436.5768 -430.2102 C 436.5768 -419.64195 427.93 -410.9952 417.36174 -410.9952 C 415.85203 -410.9952 414.4795 -411.13245 413.10694 -411.54414 L 404.18565 -405.5051 L 405.5582 -414.97536 C 401.02896 -418.54384 398.1467 -424.0339 398.1467 -430.2101 C 398.1467 -440.7784 406.79347 -449.42516 417.36174 -449.42516 C 427.93 -449.42516 436.5768 -440.7785 436.5768 -430.2102 Z" fill="#ffca19"/>
        </g>
        <g id="Group_121">
          <g id="Graphic_122">
            <path d="M 436.1651 -434.0532 C 432.73386 -437.07274 428.3418 -438.857 423.4008 -438.857 C 412.8325 -438.857 404.18574 -430.2102 404.18574 -419.64195 C 404.18574 -418.2694 404.323 -417.0342 404.59754 -415.79894 C 400.61726 -419.3674 398.1468 -424.4457 398.1468 -430.07295 C 398.1468 -440.6412 406.79357 -449.288 417.36184 -449.288 C 426.69473 -449.42525 434.38075 -442.83716 436.1651 -434.0532 Z" fill="#030303"/>
          </g>
        </g>
        <g id="Graphic_120">
          <path d="M 403.4995 -404.4071 C 403.08773 -404.6816 402.8133 -405.2306 402.8133 -405.77963 L 404.18584 -414.56366 C 399.51934 -418.54393 396.77435 -424.1712 396.77435 -430.3475 C 396.77426 -441.73924 405.97 -450.93496 417.36174 -450.93496 C 428.7535 -450.93496 437.9493 -441.73924 437.9493 -430.3474 C 437.9493 -418.95554 428.7536 -409.7598 417.36174 -409.7598 C 415.9892 -409.7598 414.61675 -409.89707 413.38147 -410.1716 L 405.00923 -404.54435 C 404.46027 -404.13266 403.9112 -403.9954 403.4995 -404.4071 Z M 417.36174 -448.0527 C 407.4797 -448.0527 399.51925 -440.09217 399.51925 -430.2102 C 399.51925 -424.72023 401.9897 -419.5047 406.38178 -416.07347 C 406.79357 -415.79894 406.93074 -415.25 406.93074 -414.8382 L 405.97 -408.38745 L 412.28346 -412.64225 C 412.558 -412.9168 412.9697 -412.9168 413.38147 -412.7795 C 414.754 -412.505 415.9892 -412.36773 417.36174 -412.36773 C 427.2438 -412.36773 435.20423 -420.32827 435.20423 -430.2102 C 435.20423 -440.09217 427.2438 -448.0527 417.36174 -448.0527 Z" fill="black"/>
        </g>
        <g id="Graphic_119">
          <path d="M 417.36174 -422.79864 C 416.53825 -422.79864 415.9892 -423.3476 415.9892 -424.1712 L 415.9892 -428.7004 C 415.9892 -429.5239 416.53816 -430.07295 417.36174 -430.07295 C 419.28324 -430.07295 420.79296 -431.58267 420.79296 -433.50417 C 420.79296 -435.42567 419.28324 -436.9354 417.36174 -436.9354 C 415.44024 -436.9354 413.93053 -435.42567 413.93053 -433.50417 C 413.93053 -432.6807 413.38156 -432.13163 412.558 -432.13163 C 411.7345 -432.13163 411.18544 -432.6806 411.18544 -433.50417 C 411.18544 -436.9354 413.93043 -439.68047 417.36174 -439.68047 C 420.79305 -439.68047 423.53804 -436.9355 423.53804 -433.50417 C 423.53804 -430.6219 421.4793 -428.15145 418.7343 -427.46513 L 418.7343 -424.1711 C 418.7343 -423.48496 418.18523 -422.79864 417.36174 -422.79864 Z" fill="black"/>
        </g>
        <g id="Graphic_118">
          <path d="M 416.401 -419.23016 C 415.85203 -419.7791 415.85203 -420.73987 416.401 -421.15166 C 416.94995 -421.7006 417.77353 -421.7006 418.3225 -421.15166 C 418.87145 -420.6027 418.87145 -419.7791 418.3225 -419.23016 C 417.77353 -418.54393 416.95004 -418.6812 416.401 -419.23016 Z" fill="black"/>
        </g>
        <g id="Graphic_117">
          <path d="M 436.5768 -430.2102 C 436.5768 -419.64195 427.93 -410.9952 417.36174 -410.9952 C 415.85203 -410.9952 414.4795 -411.13245 413.10694 -411.54414 L 404.18565 -405.5051 L 405.5582 -414.97536 C 401.02896 -418.54384 398.1467 -424.0339 398.1467 -430.2101 C 398.1467 -440.7784 406.79347 -449.42516 417.36174 -449.42516 C 427.93 -449.42516 436.5768 -440.7785 436.5768 -430.2102 Z" fill="#7f7fff"/>
        </g>
        <g id="Graphic_116">
          <path d="M 417.36174 -422.79864 C 416.53825 -422.79864 415.9892 -423.3476 415.9892 -424.1712 L 415.9892 -428.7004 C 415.9892 -429.5239 416.53816 -430.07295 417.36174 -430.07295 C 419.28324 -430.07295 420.79296 -431.58267 420.79296 -433.50417 C 420.79296 -435.42567 419.28324 -436.9354 417.36174 -436.9354 C 415.44024 -436.9354 413.93053 -435.42567 413.93053 -433.50417 C 413.93053 -432.6807 413.38156 -432.13163 412.558 -432.13163 C 411.7345 -432.13163 411.18544 -432.6806 411.18544 -433.50417 C 411.18544 -436.9354 413.93043 -439.68047 417.36174 -439.68047 C 420.79305 -439.68047 423.53804 -436.9355 423.53804 -433.50417 C 423.53804 -430.6219 421.4793 -428.15145 418.7343 -427.46513 L 418.7343 -424.1711 C 418.7343 -423.48496 418.18523 -422.79864 417.36174 -422.79864 Z" fill="black"/>
        </g>
        <g id="Graphic_115">
          <path d="M 416.401 -419.23016 C 415.85203 -419.7791 415.85203 -420.73987 416.401 -421.15166 C 416.94995 -421.7006 417.77353 -421.7006 418.3225 -421.15166 C 418.87145 -420.6027 418.87145 -419.7791 418.3225 -419.23016 C 417.77353 -418.54393 416.95004 -418.6812 416.401 -419.23016 Z" fill="black"/>
        </g>
      </g>
    </g>
  </g>
</svg>
